<svg xmlns="http://www.w3.org/2000/svg" version="1.1" viewBox="0 0 1080 1920" width="1080" height="1920">
<path transform="translate(497,551)" d="m0 0 12 2 8 2h11l17 4 11 6 5 4 2 5 2 1v5l6 6-1 6h2v9l-5 15-5 17 5 1 1 1v10l-3 5-3 14-3 3-5-1-1 7-2 8 4 2 2 3 5 3 10 9 6 5 16 3 13 1 7 2 13 1 11 2 9 1 6 3 9 11 5 13 4 24 4 11 2 14 2 3v17l1 16v70l-2 26-5 24-8 32-5 29-1 11 4 18 11 43v3l-15 4-13 2-16 5v23l-3 9-1 9v16l-3 10v15l-3 12 1 11v20l-2 14-2 9 1 23v17l5 10 6 11 2 9 2 36 2 17 1 17 2 81v58l-2 25 1 14 2 5v12l-4 13-5 6-5 3-4 4-4 2-2 3h-8v2l-8 1-3 2-15 3-13 2-18-2-8-4-5-4 3-10 10-13 8-11 9-10 8-14-2-14-2-15-1-47-4-16-2-12-2-27-4-20-1-20-4-20-1-15-4-16-4-18-3-6-1 27 1 7v74l-1 20-4 27v10l3 20 1 26 5 7 6 14 1 5v23l-1 2-12 1-3 1-19 1-3 1-11-1-11 2-26 3-8 1-3-2-11 2-21 2h-20l-4-1-5-1-8-2-8-4-1-5 3-5 10-4 15-2 25-4 8-2 10-5 15-11 9-7 1-7v-32l-2-8-1-19 3-27-1-8-4-26-3-23-3-15-1-22-8-40-7-29-6-32-13-73-4-45-1-6-2 2-5-1v-35l2-27 3-22 4-19 2-25-10 28-7 12-10 24-5 10-8 18 1 2v12l-4 11v17l-2 9-1 3 10-1 2 2v5l-5 3h-3l-2 5-12-1-13-5-6-7-8-16-3-4 1-10 6-16 3-12-1-7 3-24 5-19 5-14 1-10 3-9 10-45 3-20 5-8 1-4 1-8 3-5 4-4 1-9 6-13 5-21 3-8 2-12 1-1 1-7v-9l-1-7 3-10-1-14 2-11 4-10 7-8 10-6 10-7 19-10 10-7 8-9 1-11 4-4-1-8-3-6-8-7-4-9-1-4v-8l-5-1-2-3v-15l-1-3v-10l3-4 5 1-1-8v-27l-1-2 4-7-3-2 5-2 9-11 6-5 6-8z" fill="#0F0F0F"/>
<path transform="translate(497,551)" d="m0 0 12 2 8 2h11l17 4 11 6 5 4 2 5 2 1v5l6 6-1 6h2v9l-5 15-5 17 5 1 1 1v10l-3 5-3 14-3 3-5-1-1 7-2 8 4 2 2 3 5 3 10 9 6 5 16 3 13 1 7 2 13 1 11 2 9 1 6 3 9 11 5 13 4 24 4 11 2 14 2 3v17l1 16v70l-2 26-5 24-8 32-5 29-1 11 4 18 4 15-1 4v-2h-2l-5-9v-3l-5-2-6-1-5-1v-2l3-2v-5l4 1v-3l2-1-2-1v-4h3l-1-4-1 3h-2v2l-6 2v3l2 1-5 5v3l-1 4 4 1-1 2-4-1-3-9v-1l-1-4-4 2 3 3-2 5-3 7-2 4h-5l2 1 1 6-1 4v14l-4 14-12 26-2 4-5 2v3l-4 2-3-1 1-10 1-3h-2l-2 5-5 2-1 2-5 2-1 2h-2l-1-3 2-8 2-4h-2l-2 4-2 2-6-1-5 6h-4l2-8 8-14 1-7h-2l-2 7-8 11-7 1-5-1-5 11h-2l-1 4 3 1v2l-4-2 1-7 8-16 11-18 4-8 1-7-5 7-3 9-3 1-1 5-7 6-7 1-4-4 7-9 4-6 10-13 4-5 14-8 9-5 3-4 13-1h-13l3-12 3-7 3-4v-6l4-4h2v-12l6-4 2-12-3-5v-3l4-3 1-6 2-4 2-9 2-6 5-16 2-14 3-6 3-13 7-2-3-1v-2l-5-2-1-4 4-4 3 4 7-3 2-3h-9l-4-2-1-3-8 1 1-6 3-7-5-1-3-9-1-8-4-2 2-12-5 4-2-2 3-8 5-12-1-1-8 11-2-3 1-7 2-5v-5l2-2-1-5 1-5 2-2h-2l-7 1 3-6 2-5h-2v-4l-4 15-1 2v35l1 4v8l-4 2-1 6 5 4 2 9v10l-1 3h-2v2l-5 3-5 7h-2l-1 3h3l5-5 5-2v-2l4 2 1 5-3 8-5 8-4 6-2 9-4 8-7 9-1 3-2 1v6l5 2-1 4h2l2-4h3l1 3h-2v2h-2l-1 3v-2h-4l-1-4-7 1 2-2v-2-2l-4 1-3 9v1l-10 1v-6l4-6 7-3 1-2h2v-2l2-1 1-5h2l-2-5-5 2-5 1-4 2-2 4-5 3-6 2-7 3-3 4h-2l-2 5-5 5-4 9-3 4-1 7-4 3-3 7-2 1-1-5h-6l-1-3h-2v-9h-2v-7h2l-1-4-2-1-3-19v-9l5-1v-5l4-1-5-1 1-4-4 2-2-1v-3h2l1-3h2l4-6 8-17 6-12 5-1h2l1-5-1-16 1-9 6-23 4-11-2-1 2-1-1-4 2 1 1-8h2l1-2h2l2-7 1-10 2-2 1-4v-3l3-3 2-5 1-4h2l2-6 7-12 8-10 5-5h2l-1-2-9 8-12 18-14 28h-2l-2 8-6 12-2 5-7 15-9 22-7 18-5 12-5 13-3 10h-1v-7l3-14v-6h2v-2h-2l-1-3-1 5-9-2-1-5 3-11 4-1 4 1 1 3 2-3h2l1-3 2-4-5 1-1 2 1-4 2-2h4v-5l-6 1 4-5 3-1 2-7v-5l-7 1-8 3-1 2-4-2-4-1-2 4v25l-1 22-2 3v51l-3 3-1 2h-2v3l-5 5-4 5-6-11-1-4v-10l2-39 2-43-5-1-1-2h2v-2h2l1-5 1-1 1-7-8 1-1-1v-11l2-19 3-4 6 1 3 1 1-3-15-1-2 9-2 23-1 13-1 3-1 5v18l-2 1v-5l-1 4 2 4-1 4v-3h-2l1 4h2l-2 12h-2v15h-2l1 5-2 1-1 6-1 11 1 5h-1v16l-1 12h-2l-1-27v-15l-3-20-1-15-4-13-3-15-3 1-2-1 4 9v6l-3 2-2 18-6 16-2 4-12 2v-9l6-13 5-21 3-8 2-12 1-1 1-7v-9l-1-7 3-10-1-14 2-11 4-10 7-8 10-6 10-7 19-10 10-7 8-9 1-11 4-4-1-8-3-6-8-7-4-9-1-4v-8l-5-1-2-3v-15l-1-3v-10l3-4 5 1-1-8v-27l-1-2 4-7-3-2 5-2 9-11 6-5 6-8z" fill="#272526"/>
<path transform="translate(193,763)" d="m0 0h175l10 2v59l-1 31h-81l-35 1-4 1-23 1h-88l-2-1h-8l-1 3-5-5-2-27-1-6v-48l1-7 1-1h7l3 2h13l14-1 12-3zm124 26v9h1v-9zm1 9 1 3zm1 3 1 3zm2 5m-124 4 4 1zm-5 12m1 1 4 6 7 6h3l-2-7-10-5zm25 1-1 9 9-1-2-4-4-2zm142 0v19h2v-13l-1-6zm-185 11m37 11 1 2 1-2z" fill="#FBFBFB"/>
<path transform="translate(812,805)" d="m0 0h78l2 1 16 1 2 25 1 91 3 15 1 2h-16l-24-1h-20l-2 1h-86v-117l-2-5v-9l1-1 12-1 32-1z" fill="#FDFCFA"/>
<path transform="translate(639,352)" d="m0 0 8 2 19 11 6 2 8 2 5 6 8 2 2 5 11 6 3 5 1 45-1 29-3 5-22 13-6 4-8 4-5 3-11 6-9 5h-9l-16-9-24-14-21-12-3-6v-71l6-9 21-12 26-15 11-6z" fill="#5D8DBB"/>
<path transform="translate(780,504)" d="m0 0h18l5 5 2 10 6 10 2 4 6 3 2 3 1 7 2 4v12l-1 3-1 49-2 6-2 2v9l1 2v11l-7 1-97 1-4 1-2-6 1-3v-18l-1-3-1-20-1-1-1-54-2-6v-11l3-6 1-1 1-7 4-4h6l4 2 20-2 4-1 23-1zm-57 20m27 17 1 2zm8 84 1 4z" fill="#FCE37F"/>
<path transform="translate(375,345)" d="m0 0h119l4 3v13l-3 25-4 25-6 43-2 5-5 3-39 13h-8l-40-13-5-3-2-7-13-94v-9z" fill="#F9F9F8"/>
<path transform="translate(497,551)" d="m0 0 12 2 8 2h11l17 4 11 6 5 4 2 5 2 1v5l6 6-1 6h2v9l-5 15-5 17 5 1 1 1v10l-3 5-3 14-3 3-5-1 1-16v-2l-2 6-2 1-2 12-2 6-5 5-5 2-3 3-4 1-4 5h-2l-1 2h-4v-2l-2-1v5l-5 1-1-2-6 2-3-1v-3l-2-1-1-2h-2v-2l-4-1-1-7h2v-2h-2l-2-4-1-8h4l3 5 5 4-3-5h6l2 1v-2l-4-1v-2h-6l3-2 8-1h9l10 5-1 2-2 1 1 1 3-1 1-3-1-3-5-1-5-3-7-1v3h-2l-3-7h3l-1-1h-5l-1 3-3 2-9 1v3h-3v6l-4-1v-2l-3-1-2-3v-3h-2l-2-5-1-7v-14l-4-4h-4l2-4 5 1-1-8v-27l-1-2 4-7-3-2 5-2 9-11 6-5 6-8z" fill="#B8976B"/>
<path transform="translate(705,392)" d="m0 0 4 1 1 45-1 29-3 5-22 13-6 4-8 4-5 3-11 6-9 5h-9l-16-9-24-14-21-12-1-4 13-8 12-7h3l6 8 7 6 10 5 8 2h15l13-4 9-6 7-7 3-5-5-2-14-8-5 5-5 4-7 2h-7l-8-3-7-6-4-8v-13l5-8 7-6 5-2h11l8 4 5 5h4l27-15z" fill="#2F639B"/>
<path transform="translate(584,705)" d="m0 0 23 2 7 2 13 1 11 2 9 1 6 3 9 11 5 13 4 24 4 11 2 14 2 3v17l1 16v20h-1l-1-12-4 1-3 3-2 5-3 2h-3l-1 3-9 7-5 5-1-3 1-3-3-6-3-1-1-4-6-2-2-11-3-11-1-13h-5l-1-7v-5l20-5 15-2h-4l-19 3-7 1 5-4 5-2v-2l-13 2-3-4-3-6-1-4-4-6-4-4-1-3 2-12 5-10h2l1-4 2-4 2-1 4-7 2-2-1-2-5-1-13-1-8-4-4 2-5-1-6-2v-2z" fill="#3E3A38"/>
<path transform="translate(389,899)" d="m0 0 4 2 9-2h10l-1 2-14 2v4h-6l-1 2 4-1 5 2v3l-12 3-2 4 5-1h7l10 2-3 2-7 1-1 5h2l2 5-2 1v9l1 1 1 19-1 13h2v4l-6 2-2 6-1 5-11 4-5 1v3l11 3-2 8-13 7-3 3h10l1 4-5 5-3 6-1 13-11 1-7 3-1 1-1 8h3l2-4 4-2v3l-4 4v1l2-1-1 8 5-8v-5l6-3 3 1 7 6 6 9v8l-4 24-1 2h-3l-2 5 7 2 1-7h1v10l-2 9-1 3 10-1 2 2v5l-5 3h-3l-2 5-12-1-13-5-6-7-8-16-3-4 1-10 6-16 3-12-1-7 3-24 5-19 5-14 1-10 3-9 10-45 3-20 5-8 1-4 1-8z" fill="#2A2829"/>
<path transform="translate(375,345)" d="m0 0h119l4 3v13l-3 25-4 25-6 43-2 5-5 3-39 13h-8l-40-13-5-3-2-7-13-94v-9zm11 14 3 25 9 65 35 12 9-2 28-9 2-6 11-79v-6z" fill="#111"/>
<path transform="translate(497,551)" d="m0 0 12 2 8 2h11l17 4 11 6 5 4 2 5 2 1v5l6 6-1 6h2v9l-5 15-5 18-4 1 1-6-4-9-1-2-4-2v-2h-3l-4-6v-5l-9 2v-5l-5 2-1 1-9-1-10-2-1 1-14 1v2l-9 1h-4l-1 6-3 4-3 14-3-3-1-10v-27l-1-2 4-7-3-2 5-2 9-11 6-5 6-8z" fill="#2B2929"/>
<path transform="translate(583,1043)" d="m0 0h8l8 9 3 5 4 1h13l3 1v3h-2v5h2l-1 13-5 13-9 19-2 4-5 2v3l-4 2-3-1 1-10 1-3h-2l-2 5-5 2-1 2-5 2-1 2h-2l-1-3 2-8 2-4h-2l-2 4-2 2-6-1-5 6h-4l2-8 8-14 1-7h-2l-2 7-8 11-7 1-5-1-5 11h-2l-1 4 3 1v2l-4-2 1-7 8-16 11-18 4-8 1-7-5 7-3 9-3 1-1 5-7 6-7 1-4-4 7-9 4-6 10-13 4-5 14-8 9-5z" fill="#B8976A"/>
<path transform="translate(639,384)" d="m0 0 11 1 12 4 8 6 8 8 2 4-15 9-5 2-3-3v-2l-4-2-7-3h-11l-8 4-6 7-2 4v13l4 8 8 6 6 2h7l8-3 6-5 3-3 19 11-2 5-10 10-12 6-8 2h-15l-13-4-10-7-8-9-5-11-2-8v-13l4-13 7-11 10-8 11-5z" fill="#FDFDFD"/>
<path transform="translate(580,1546)" d="m0 0 10 1-4 4 3 2-4 2v2l5-1 4-8 2-1 16 3 5 3 1 2h3v5l-5 3v4l-1 9 6 2 1 9-5 9-2 3 9-2-1 3-6 3-2 3h-8v2l-8 1-3 2-15 3-13 2-18-2-8-4-5-4 3-10 10-13 8-11 9-10 7-12h3z" fill="#282626"/>
<path transform="translate(433,772)" d="m0 0 2 2-4 15 4 3 5-2h3l2-5 4-1 1-6h1l-1 11-2 23-1 13-1 3-1 5v18l-2 1v-5l-1 4 2 4-1 4v-3h-2l1 4h2l-2 12h-2v15h-2l1 5-2 1-1 6-1 11 1 5h-1v16l-1 12h-2l-1-27v-15l-3-20-1-15-4-13-3-15-3 1-2-1 4 9v6l-3 2-2 18-6 16-2 4-12 2v-9l6-13 5-21 3-8 2-12 1-1 1-7v-9l-1-7 3-10v-9l4-8 8-4h2l1-2z" fill="#282627"/>
<path transform="translate(599,453)" d="m0 0h3l6 8 7 6 10 5 8 2h15l13-4 9-6 11-11 23 13 3 2-1 4-22 13-6 4-8 4-5 3-11 6-9 5h-9l-16-9-24-14-21-12-1-4 13-8z" fill="#1D4976"/>
<path transform="translate(368,1057)" d="m0 0 3 1 7 6 6 9v8l-4 24-1 2h-3l-2 5 7 2 1-7h1v10l-2 9-1 3 10-1 2 2v5l-5 3h-3l-2 5-12-1-13-5-6-7-8-16-3-4 1-10 6-16 3-12-1-7h3l6-7 2 1v2l-4 4v1l2-1-1 8 5-8v-5z" fill="#B4A896"/>
<path transform="translate(135,772)" d="m0 0h38l-2 4-31 33-3 4-1 19 4 2 4 4 4-2 16-16 8-7 4-1 15 15 7 8 15 15v1h-77l-1-1z" fill="#5F8EBA"/>
<path transform="translate(473,1520)" d="m0 0 1 3h7l6 2-1 4-9 10 1 1h3l1 2 11-3 2 3-10 4-3 1-2 2-5 2-3-7-1-2-5 1v2l5 1-2 5-7 4-5 2h-5l2-5-5 1v6 3l2 1v4l-1 2 2 2-5 1-3 1-21 2h-20l-4-1-5-1-8-2-8-4-1-5 3-5 10-4 15-2 25-4 8-2 10-5 15-11 9-7z" fill="#282627"/>
<path transform="translate(465,626)" d="m0 0 4 1 4 4v14l2 10v2h2l3 6 2 1v2l4 1-1-6 2-2v2h2v-3l9-2 3-1-1-3 7-1 2 3h-3l2 3v3h2v-3h8l6 4 4 1 1 4-2 3-5 1 1-4 1-1-8-4h-14l-3 1 3 1v2l4 1v2h-7l3 3-1 2-8-7-1-2-2 1 1 7 1 3h2v2h-2l2 7 3 1v2l3-1 2 4 1-2-1 5 3-1v2h2l1-2 8 1 1-5 3 1 3 2 1-3 2 1 1-3 2-2 1-2 2-1v2h2l2-4 4-1 7-6 3-15 3-7 2-4 1 5-1 14-3 12-1 9-7 6-3 3-16 8-11 7-10 4v2l-6 2-5-5-5-16-3-9-9-8-4-9-1-4v-8l-5-1-2-3v-15l-1-3v-10z" fill="#3F3B38"/>
<path transform="translate(173,772)" d="m0 0h40l-6 7-36 36-16 15-9 9-4-2-6-5v-19l9-10 12-13 15-16z" fill="#B99669"/>
<path transform="translate(780,504)" d="m0 0h18l5 5 2 10 6 10 2 4 6 3 2 3 1 7 2 4v12l-1 3-1 49-2 6-3 2v-79h-23l-1-1v-31h-81l1 132 99 1v1l-97 1-4 1-2-6 1-3v-18l-1-3-1-20-1-1-1-54-2-6v-11l3-6 1-1 1-7 4-4h6l4 2 20-2 4-1 23-1z" fill="#1B1A19"/>
<path transform="translate(504,553)" d="m0 0 7 1 9 1h8l17 4 11 6 5 4 2 5 2 1v5l6 6-1 6h2v9l-5 15-5 18-4 1 1-6-4-9-1-2-4-2v-2h-3l-4-6v-6l-2-1h2v-2l-4 2-2-5 3-3-4-1-2 2-2-2h-3v-3l-1-3h5l5-1v4l6 1 2-5-3-1v-2l-7-7 4-3 2 1v3l1-3-3-3v-2h4l-3-5-8-2 1-2h-3l-1 2 7 2 1 2-11-1 2 2-10 1-5 2-2-2 2-4v-1l-7-1-4-3 3-1-3-2z" fill="#262424"/>
<path transform="translate(577,722)" d="m0 0 1 3-8 7-8 11-9 16-2 6-4 6-1 4 2 2-4 2-1 10-2 7-5 3-1 7-3 2 2 1-2 7-5 17-3 13-1 13 1 14-1 4-6-1-1 2h-2l-1 5-10 19-3 6-4 5-1-3v-2-8l-2-1-1-4 5-15 6-17 4-9 5-13 10-24 8-16 2-6 6-12 2-6h2l1-5 8-16 9-15 9-12z" fill="#0E0E0E"/>
<path transform="translate(479,720)" d="m0 0 1 3-6 11-12 21-7 15-3 8h-2l-1 6-4 1-2 5-9 3-1-3-3-1 4-16h-3l-1 3-6 2-1 3h-4l-4 8h-2l1-13 5-13 7-8 10-6 10-7 19-10 10-7z" fill="#3E3B39"/>
<path transform="translate(497,601)" d="m0 0h9l-3 1-1 3-5 3-8 1h-1-2v3l-4 4 8-2 10 3 11 2v4l2 1-2 2-2 7-1 8-3 6h-2l-1 5-1 3-3 2-9 1v3h-3v6l-4-1v-2l-3-1-2-3v-3h-2l-2-5-1-7v-14l-4-4h-4l2-4 5 1 2 4 4-15 3-4 1-4 8-1h5v-2z" fill="#B7966A"/>
<path transform="translate(446,373)" d="m0 0h23l5 5v5l-4 4h-17v14h9l7 6v13l-3 17-4 3-15 4-6-1-3-4 1-6 3-3 7-2h4l1-12-10-1-5-5-1-3v-27l4-5z" fill="#111212"/>
<path transform="translate(885,837)" d="m0 0h18v81h-18z" fill="#1A4674"/>
<path transform="translate(400,373)" d="m0 0h27l4 4v62l-4 5h-6l-16-9-2-2v-7l3-3h7l4 2v-38h-17l-4-4v-6z" fill="#0F0F0F"/>
<path transform="translate(768,922)" d="m0 0h142l1 1v9h-143z" fill="#B4A896"/>
<path transform="translate(313,571)" d="m0 0 2 4 3 4h6l1-1h12l8 5 3 2 1 6 3 1 12 1 6 3v12l-12 6-42 18h-3v-13l39-16-2-2-25-10-2-2-8-3-5-7v-5z" fill="#E52126"/>
<path transform="translate(267,573)" d="m0 0h3v13l-39 16 3 2 31 13 5 2v14l-24-10-32-14-1-1v-12l47-20z" fill="#E52126"/>
<path transform="translate(568,1089)" d="m0 0h2v7l-9 16-1 5 4-2 4-4 6 1 4-5h2l-2 7-1 8h2l1-3 5-1 1-3 4-1 3-5 3-1-1 10-2 4 7-1v-3l6-3-2 6-6 8-6 4-6 2-6-1-1-2-5 2-5 4h-7l-3-4 2-5 6-4-4 2-7 4-3 2h-6l-3-4v-2h-5l-3-3v-5l2 4 3 2-3-3 1-4h2l3-9 2-3 10 1 5-5 5-7 1-4z" fill="#3A3635"/>
<path transform="translate(857,853)" d="m0 0h19v65h-18l-1-1z" fill="#608EBA"/>
<path transform="translate(804,850)" d="m0 0h18v67h-18z" fill="#E52126"/>
<path transform="translate(767,922)" d="m0 0h1v10h143v-6h1l2 12 1 2h-16l-24-1h-20l-2 1h-86z" fill="#FEFEFE"/>
<path transform="translate(887,811)" d="m0 0 17 2 1 1-1 7-5 11-3 1-2-1 1-8-48 28-6 1-29-15-5-2-19 13-13 10-5 3h-2v-6l10-8 19-13 8-6 7 1 23 12 7 4 5-2 23-13 21-12-6-3v-4z" fill="#E42126"/>
<path transform="translate(368,1057)" d="m0 0 3 1 7 6 6 9v8l-4 24-1 2h-3l-2 5 7 2 1-7h1v10l-3 3-9-1-2-1v5l-8-4v-5l-3-7v-3l-4-2-1-3 2-5 2-9 4-4 4-2 1-2 7 1h1l4-2v-3l-2-5-4-2v-2l-6-2h-2l1 5-4 6-4 1 5-9v-5z" fill="#B69569"/>
<path transform="translate(389,899)" d="m0 0 4 2 9-2h10l-1 2-14 2v4h-6l-1 2 4-1 5 2v3l-12 3-2 4 5-1h7l10 2-3 2-7 1-1 5h2l2 5-2 1v9l1 1 1 19-1 13h2v4l-6 2-2 6-1 5-7 3-4-1 4-2h-6l-2-2 7-8 2-1v-14l5-7-1-3 1-7-1-5v-7l-2-4-6-1v-2h-3v-9l5-8 1-4 1-8z" fill="#272526"/>
<path transform="translate(832,864)" d="m0 0h18l1 1v52l-1 1h-18z" fill="#36679C"/>
<path transform="translate(300,555)" d="m0 0h5l4 4 1 5-3 4-22 78h-11l2-10 19-67 1-5 1-7z" fill="#3A3837"/>
<path transform="translate(779,865)" d="m0 0h18v53h-18z" fill="#FFE680"/>
<path transform="translate(378,930)" d="m0 0 5 3 3 2 5 5v11l1 1-1 8 1 3-5 7v14l-6 3-4 3h-3v2l-4 1-2 4-3 3-1 6h-1v-8l3-9 10-45z" fill="#423E3B"/>
<path transform="translate(272,800)" d="m0 0h9l8 5 4 5 1 8-3 9-5 4-4 2h-12l-6-4-5-8v-9l6-8z" fill="#131313"/>
<path transform="translate(226,791)" d="m0 0h9l1 17 16-17h11l-6 7-9 9 1 5 13 17 1 3h-11l-11-15h-2l-3 3-1 13h-9z" fill="#121313"/>
<path transform="translate(565,1054)" d="m0 0h2v2l-1 1 11 1h3l2 7-3 4-1 6-4 1-4 3-1 4-6 1-4 2-8 8 2-5 8-15 1-7-5 7-3 9-3 1-1 5-7 6-7 1-4-4 7-9 4-6 10-13 4-5z" fill="#B4A794"/>
<path transform="translate(501,553)" d="m0 0h3v2l4 2-2 1 7 3 4 1-3 3v3l9-3h4l-1-2 11 1-7-3 1-3 10 1v1l-6 1 7 2 2 2v3h-4l1 4 3 1v3h-2l-3-3-2 3 6 3-1 1 2 2v2l2 1-1 5-5 1v-2h-2v-4h-4l-1 2h-7v-2h-2l-1 2-4-1-3-2 3-5h-5l-1-2-3 1v6l-5-1v-3h-3l-1 1-3 2h-3l1-6 8-2h3l-1-3 5-1v-2h-5l-1-7-5-2-2-5z" fill="#252324"/>
<path transform="translate(503,602)" d="m0 0h4l-1 3 2 5h3v-2l5 2 2 3 8 1 6 1 1 4-6 2h-11v4l-2 2 2 9v10l5 1 2 2v-5h4v-2h11l3 9v3h-3l-1 3-3 1-8-8-2 3-14-2-4-5 1-5 2-11 2-5v-2-4l-11-1-12-3-1 1h-5l2-4h2v-3h2v-2l3 1 7-1z" fill="#B4A793"/>
<path transform="translate(135,772)" d="m0 0h38l-2 4-31 33-3 4h-2z" fill="#5C8DBB"/>
<path transform="translate(490,737)" d="m0 0h6l2 1-1 3h-2l3 7-7 20-4 9-4 13-2 8-1 15h-1l-1-14-3-2h-11v-7l5-12 8-14 8-10 3-7 1-9z" fill="#3C3836"/>
<path transform="translate(635,407)" d="m0 0h11l8 4 5 5 2 3-33 18-8 4-2-5v-13l5-8 7-6z" fill="#5D8DBB"/>
<path transform="translate(713,507)" d="m0 0h6l4 2h12l-1 2h-22l1 132 99 1v1l-97 1-4 1-2-6 1-3v-18l-1-3-1-20-1-1-1-54-2-6v-11l3-6 1-1 1-7z" fill="#161617"/>
<path transform="translate(149,799)" d="m0 0 7 6 12 12-22 22-4-2-6-5v-19l9-10z" fill="#E52126"/>
<path transform="translate(556,691)" d="m0 0 1 3-7 10-2 8-2 3h-2l-1 4-7 8-7 13-7 1-3-1-7 5h-2v2l-2 1-2 7-2 4-1-4-4 9-4 5-2 6-2-1 1-5 11-30 5-3 2-3 3-1 2-4 6 9 4-2 1-7 7-10 13-15 9-10z" fill="#0E0E0E"/>
<path transform="translate(267,573)" d="m0 0h3v13l-39 16 3 2 31 13 5 2v14l-24-10-32-14-1-1v-12l47-20zm-3 4-30 13-19 8v9l49 21h3v-7l-23-10-19-8-1-1 39-16 4-2v-7z" fill="#383636"/>
<path transform="translate(355,800)" d="m0 0h8l6 6v27h-7l-1-3-1-17-1-4-7 1-2 3-1 20h-8v-32h8v3z" fill="#111112"/>
<path transform="translate(639,430)" d="m0 0 5 1 16 10-3 5-6 5-7 2h-7l-8-3-7-6-1-4z" fill="#1D4977"/>
<path transform="translate(585,1096)" d="m0 0h5l3 4-1 2 4-1h2l3-4 8 2 1 3-4 13-4 3h-2v3l-4 2-3-1 1-10 1-3h-2l-2 5-5 2-1 2-5 2-1 2h-2l-1-3 2-8 1-7 1-3-2-1 4-3z" fill="#3C3836"/>
<path transform="translate(313,571)" d="m0 0 3 6v7l9 3 34 14 1 2-30 13-12 5h-2v7l35-15 16-7 1-8-9-3-3-2h8l6 3v12l-12 6-42 18h-3v-13l39-16-2-2-25-10-2-2-8-3-5-7v-5z" fill="#3C3939"/>
<path transform="translate(296,793)" d="m0 0h9v8h8v8h-8l1 15 6 1v7l-2 1h-9l-4-3-1-3v-18h-3v-8h3z" fill="#121212"/>
<path transform="translate(300,560)" d="m0 0h6l-4 16-18 64-2 4h-5l4-16z" fill="#E52126"/>
<path transform="translate(553,935)" d="m0 0h2l-2 6-6 8-3 8-1 9-3 1-1 3h-2v2l-3 3 1 6 1 2v11l2 2-3 2-2-2 1-10h-2l-2-15h-2l-2 5-3-1v-4h2v-8l2-2 7-3 2-9 4-5 6-3 4-5z" fill="#262425"/>
<path transform="translate(788,571)" d="m0 0h13l3 1v7l-6-2h-8l-1 4 11 2 5 4v7l-4 5-3 1h-14l-3-1v-8l7 3h8l1-3-10-3-5-3-1-2v-6l5-5z" fill="#111"/>
<path transform="translate(760,571)" d="m0 0h13l3 1v7l-6-2h-8l-1 4 11 2 5 4v8l-4 4-3 1h-13l-4-2v-7l7 3h8l1-3-10-3-5-3-1-2v-6l5-5z" fill="#111"/>
<path transform="translate(504,553)" d="m0 0 7 1 9 1h8l17 4 7 4-1 3h-4l-2 5v5l6-1-2 1-1 4-3 3-4-2v-2l-5-3 4-4 2 1v3l1-3-3-3v-2h4l-3-5-8-2 1-2h-3l-1 2 7 2 1 2-11-1 2 2-10 1-5 2-2-2 2-4v-1l-7-1-4-3 3-1-3-2z" fill="#434243"/>
<path transform="translate(405,1551)" d="m0 0h5l-3 2-12 1-2 5 4 3 3 2h-10l15 5 11 3-1-3h2v3l5-1 11 2v1l-10 1h-20l-4-1-5-1-8-2-8-4-1-5 3-5 10-4z" fill="#505050"/>
<path transform="translate(473,1520)" d="m0 0 1 3h7l3 2-1 5-4 5-5 4-9 2-10 5-9 1 1-3 4-2-3-2 15-11 9-7z" fill="#3B3836"/>
<path transform="translate(315,789)" d="m0 0h9v44h-9zm3 9 1 3zm1 3 1 3z" fill="#171616"/>
<path transform="translate(511,628)" d="m0 0h2l3 8v10l5 1 2 2v-5h4v-2h11l3 9v3h-3l-1 3-3 1-8-8-2 3-14-2-4-5 1-5 2-11z" fill="#FEE680"/>
<path transform="translate(733,571)" d="m0 0h12l4 2v7l-6-3h-6l-4 4v9l4 4h6l6-3v7l-4 2h-12l-6-4-3-8 1-9 3-5z" fill="#111010"/>
<path transform="translate(343,1101)" d="m0 0 5 2 2 3 2 7 3 4 1 3 9 9 3 2v2l5 2 6 4h2l1-4 6-1 2 1 1-3-1 5-6 1-2 5-12-1-13-5-6-7-2-3 1-4 5 5v3h4l-6-7-6-14-4-8z" fill="#403C3A"/>
<path transform="translate(487,691)" d="m0 0 3 2v3l4 2 5 6 5 1 4-3 12-1 11-4 3 1-12 7-10 6-8 3v2l-6 2-5-5-5-16z" fill="#B7966A"/>
<path transform="translate(476,591)" d="m0 0h1l1 5 8-5 2 2 2 9-1 3h-8l-1 6-3 4-3 14-3-3-1-10v-15l2-2 1-6z" fill="#272526"/>
<path transform="translate(556,566)" d="m0 0 4 2 3 6 2 1v5l6 6-1 6h2v9l-4 11-1-2h-2v-10l-1-4 2-2 1 3 1-1-1-9-3-3-1-5h-2v6l2 3v7h-2l-1 9-3 1-2 3-4-4 2-6 3 1 1-2h2l-3-9-1-4 2-2 1-9-6-2v-2l3-2z" fill="#44413F"/>
<path transform="translate(568,1089)" d="m0 0h2v7l-6 10-4 4-6 7-4 7-4 1-2 4v-2h-5l-3-3v-5l2 4 3 2-3-3 1-4h2l3-9 2-3 10 1 5-5 5-7 1-4z" fill="#383533"/>
<path transform="translate(562,1106)" d="m0 0 1 2-3 9 4-2 4-4 6 1 1 2-4 7-3 3-9 6-6 3h-6l-2-3v-6l5-1 5-8 4-5z" fill="#3E3936"/>
<path transform="translate(369,1118)" d="m0 0h8 3l2 1-1 7-1 3 10-1 2 2v5h-10l-1 5-5-2-5-5-5-4-6-7v-2h5l4 3z" fill="#B8AC9A"/>
<path transform="translate(654,1012)" d="m0 0 5 2 1 9 7 27-1 4v-2h-2l-5-9v-3l-5-2-6-1-5-1v-2l3-2v-5l4 1v-3l2-1-2-1 1-4 3 1z" fill="#302F2F"/>
<path transform="translate(586,1578)" d="m0 0 13 4 8-1 1-2v4h-3l1 4-7 1-24 6-6-1 1-4 3-1-2-3h-10l-5-2 3-3 21 4h6l-2-2z" fill="#0E0E0E"/>
<path transform="translate(551,1539)" d="m0 0h1v23l-1 2-12 1-3 1-19 1-3 1-11-1-11 2-14 1 4-1v-2l7-2 12-1v-2l9-2h9v2l4 1 17-2 9-3-1-2 2-8v-7z" fill="#2A2728"/>
<path transform="translate(364,1056)" d="m0 0h8l8 4 4 7v5h2l1 5v12l-4 11-1 16-1-2-9-2 3-1 1-4h3l3-21 1-5v-8l-8-11-5-4-8 2 1 5-6 10h-1v-6-1l-2-1 4-6v-2l-3 2 2-4z" fill="#49433E"/>
<path transform="translate(709,511)" d="m0 0h1v106h-1l-1-20-1-1-1-54-2-6v-11l3-6 1-1z" fill="#FEFEFE"/>
<path transform="translate(497,551)" d="m0 0 6 1-4 4 2 4 5 1v8h5v2h-9l-1-4-2-1-3-1 1 4-3 2h-3v2l4 1-4 1-6-1-1-1-2 1v-3l-7 8h-5l4-2 10-12 6-5 6-8z" fill="#3F3E3F"/>
<path transform="translate(491,775)" d="m0 0 2 1v6h2l-1 6 2-1v2h2v-2l10-2 4 1-9 4-6 4-1-2-4 5-3 1-1 3 3-1v5l-4 2h-4l-1 6h-1v-17l4-5 3-11 1-3h2z" fill="#0E0E0E"/>
<path transform="translate(345,1097)" d="m0 0 4 1 5 12v3l5 1 1 7 7 8 9 7h-3l-5-3v-2l-4-2-5-5-1-3-3-1-3-6-2-3-2-8-4-1 8 17 3 6v2l4 2v2h-4l-3-5-2-2-2 1-4-10-4-5 1-10z" fill="#B9986D"/>
<path transform="translate(328,801)" d="m0 0h9v32h-9z" fill="#0F0F0F"/>
<path transform="translate(486,685)" d="m0 0 7 3v3h2v2l5 1 7 3 2 1 7-1h3l3 1 1-4 2 2 6-2 3-3v2l4-1-4 5-15 5-12 1-3 3-5-1-7-8-2-1-3-5-2-5z" fill="#272526"/>
<path transform="translate(477,629)" d="m0 0 5 1 8 4 5 1v1h7l-2 5-4 3h-2l-2 7-9-4-4-4-3-9z" fill="#B4A896"/>
<path transform="translate(482,719)" d="m0 0h2l1 12-4 1-2 5-2 4-4 2-3 9-7 7-5 9-3 7-3 3 1-5 5-12 10-19 10-16 2-6z" fill="#0E0E0E"/>
<path transform="translate(796,513)" d="m0 0 4 4 13 18 3 5h-20z" fill="#FAF9F7"/>
<path transform="translate(494,723)" d="m0 0 2 2-5 5v5l8 1 4 1 6-3-1 3-4 2-11 30-2 8h-2l1 3h-2l-1 7-3 7h-2l1-6 5-17 3-7 6-16-2-7 3-3h-8l-2 8-2-1v-8l4-10z" fill="#252324"/>
<path transform="translate(465,758)" d="m0 0h6l-1 2h-2l1 4 2 2v10l-3 7-1-2-15-1 2-5 8-16z" fill="#3A3635"/>
<path transform="translate(481,996)" d="m0 0 9 2-1 4-4 6h-2l-2 12-3 4v3l-6-2-1-2 4-18 3-7z" fill="#272526"/>
<path transform="translate(577,722)" d="m0 0 1 3-8 7-8 11-9 16-2 6-4 6-1 4 2 2-4 2-1 10-2 7-3 2v-2h-3l-1-6 4-7 2-6h2l1-5 8-16 9-15 9-12z" fill="#121112"/>
<path transform="translate(576,926)" d="m0 0 2 1 1 4-2 4-2 1v6l5 2-1 4h2l2-4h3l1 3h-2v2h-2l-1 3v-2h-4l-1-4-7 1 2-2v-2-2l-4 1-3 9v1l-10 1v-6l4-6 7-3 1-2h2v-2l2-1 1-5z" fill="#242223"/>
<path transform="translate(501,721)" d="m0 0 7 1 5 7-2 4-8 5-4-1-9-1v-6l4-5z" fill="#3C3836"/>
<path transform="translate(584,952)" d="m0 0 5 1-1 5-4 4-2 4-6 2h-5l-1 3-1-2-2-1-1-7-2-1h2l-1-3 2-2 10-1 3-1 4 1z" fill="#272526"/>
<path transform="translate(550,564)" d="m0 0h5l1 5h-4l1 2 6 2-1 10-2 3v2l2 1 1 8h-2l-1 3-3-2v-6l-1-2h3l-4-7h-4l1-4v-3h-3v-5l-3-1 4-2 1-2z" fill="#232122"/>
<path transform="translate(568,1601)" d="m0 0 33 1-1 4h-2v2l-9 1h-3l-2 2-8-1-16-5 1-3z" fill="#0E0E0E"/>
<path transform="translate(545,1590)" d="m0 0 1 2-1 4h2v2h5v2l4 1-3 2 5 2v3l-10 1 9 2v3h-7l-8-4-5-4 3-10z" fill="#474441"/>
<path transform="translate(274,808)" d="m0 0 7 1 3 3 1 7-3 5-4 2-6-1-3-3-1-8 2-4z" fill="#F4F4F5"/>
<path transform="translate(528,587)" d="m0 0 3 2-2 1 2 2h3l4-1 3 2-3 4 2 2h3v4l-9 2v-5l-5 2-1 1-9-1-10-2-3 1 1-4 8-3 7 2v2h12l1-1h-4v-2l-5-1-4-2 1-3 4-1z" fill="#3A3635"/>
<path transform="translate(356,593)" d="m0 0h8l6 3v12l-12 6-42 18h-3v-13l3 1-1 9 22-10 30-13 1-8-9-3z" fill="#323133"/>
<path transform="translate(652,1013)" d="m0 0h1v6h-3v4l3 1-3 1v3l-4-1 1 5-4 2v2h6l-3 21-4-2-1-2v-10l5-1-7-4-1-6 4-5 2-1-1-4 1-2h5l2-5z" fill="#131212"/>
<path transform="translate(494 1e3)" d="m0 0h2l6 8-3 10-2 4-1 6-2 4-3 4-1-4 1-21-1-4z" fill="#272526"/>
<path transform="translate(506,1126)" d="m0 0 6 2 3 6 2 6-1 7 1 4-4 2-4-2-2-11-2-10z" fill="#272526"/>
<path transform="translate(597,1041)" d="m0 0 11 3 10 3 4 3-1 3-5 2h-8l-6-3v-2h-2l-1-5h-5v-2h3z" fill="#AFAA9F"/>
<path transform="translate(780,504)" d="m0 0h18l5 5v8l-4-4-3-4-53-1 4-2 23-1z" fill="#FBFBFB"/>
<path transform="translate(478,819)" d="m0 0h1v52l-2 5-2-2-3-9 2-3h2v-2l-3-1v-4-11l1-9 3-8z" fill="#383433"/>
<path transform="translate(566,1564)" d="m0 0h5l4 2 8 1 3 3h-9l3 5-6 3h-8l-5-2-1-2h2l1-4 5-2z" fill="#0E0E0E"/>
<path transform="translate(816,535)" d="m0 0 4 2 2 9 2 4v12l-1 3-1 49-1 5h-1l-1-79z" fill="#FCFCFD"/>
<path transform="translate(477,967)" d="m0 0h10l10 1v2h-5v10l1 11-4 1v2h-11v-2l3-1h7l-2-13v-8h-10z" fill="#423C37"/>
<path transform="translate(432,948)" d="m0 0h1v30l-1 15-2-4v-4l-2 5-2 15h-1v-10l1-14 2-11v-8l2-9z" fill="#262425"/>
<path transform="translate(364,1084)" d="m0 0 2 2 3 15v8l1 4h-1v10l-4-2-2-2 3-2 1-3-3 1-3-9v-7l-2-3h5l-1-3-2-1v-5z" fill="#3D3937"/>
<path transform="translate(592,1041)" d="m0 0h5v2h-3v2h5l1 5h2v2l6 2h8l7-1v19h-1v-5h-2l-1-3 1-2h2v-3h-18l-5-5-6-8-2-2-8-1v-1z" fill="#3C3938"/>
<path transform="translate(389,899)" d="m0 0 4 2 9-2h10l-1 2-14 2v4h-6l-1 2 4-1 5 2v3l-12 3-5 4 2-4 1-4 1-8z" fill="#2F2E2F"/>
<path transform="translate(556,1020)" d="m0 0h1l-1 7-10 13-5 2-2-4 1-2h-2l-1-3 6-4h3l2-4 5-4z" fill="#272526"/>
<path transform="translate(487,702)" d="m0 0 1 2v5l3 5-4 1-1 2 6 1 2 6-4 4-4 13h-1l-1-22-4 1 3-4 1-11z" fill="#3C3938"/>
<path transform="translate(588,737)" d="m0 0h2l1 5-2 4 1 11-1 8-2 4-3-1v-4l-2-1-1-10 1-9 1-3h2l1-2v3h-2v4l3-3z" fill="#3C3836"/>
<path transform="translate(585,1103)" d="m0 0h8l2 1-1 5-4 6-4 1-1 2-5 2-1 2h-2l-1-3 5-10z" fill="#B9976A"/>
<path transform="translate(388,1563)" d="m0 0 28 4 17 2h8l2 1v2l-7 1h-9l-10-1v-3l-1 3-14-3-12-4z" fill="#111"/>
<path transform="translate(488,614)" d="m0 0 12 3 8 4 1 3-3 8-5 2-6-1 4-2 2-3v-3l-4-3-9-4z" fill="#3E3A37"/>
<path transform="translate(364,1056)" d="m0 0h8l8 4 4 7v4l-3-1-7-9-4-3-8 2 1 5-6 10h-1v-6-1l-2-1 4-6v-2l-3 2 2-4z" fill="#4C403A"/>
<path transform="translate(463,627)" d="m0 0h1l1 6 3-3 3 1-2 10 2-1-1 17 1 2-5-1-2-3v-15l-1-3z" fill="#B8986E"/>
<path transform="translate(265,574)" d="m0 0 2 1 1 1v8h-1v-7l-45 19-6 2-1-3 31-13z" fill="#333234"/>
<path transform="translate(532,579)" d="m0 0h5l1 2 8 4-1 5-5 1v-2h-2v-4h-4l-1 2h-7v-2h-2l-1 2-4-1-3-2 3-4 5 2h3l3-1 2 1z" fill="#0E0E0E"/>
<path transform="translate(564,1062)" d="m0 0 1 2-2 9-1-3v-3l-5 7-3 9-3 1-1 5-7 6-7 1-2-2 8-2 5-4 1-3-2-2 2-4 5-5 4-6h2l2-4z" fill="#B9976A"/>
<path transform="translate(658,856)" d="m0 0h6l3 3-1 5h-2l-1 7-4 1-8-4 1-4 5-1-1-5z" fill="#3C3836"/>
<path transform="translate(574,983)" d="m0 0 5 1 1 5-1 4-6 6-8 2-4-4-1-4 14-2 2-4v-3z" fill="#272526"/>
<path transform="translate(542,1078)" d="m0 0 3 1 1 5 3 1-3 5-6 4h-7l-1-2 7-9z" fill="#B5A48C"/>
<path transform="translate(553,935)" d="m0 0h2l-2 6-6 8-3 8-1 9-3-1 2-11 2-7-5 2-3 5-1-3 4-6 7-4 4-5z" fill="#272526"/>
<path transform="translate(444,743)" d="m0 0 2 1-3 7-5 5-2 3h-2v2l-4 2-5 1 1-5 3-3h2l2-5z" fill="#AD916C"/>
<path transform="translate(267,573)" d="m0 0h3v13l-39 16-1-2 1-2 34-14h3v-8l-2-1z" fill="#363536"/>
<path transform="translate(608,1105)" d="m0 0 1 2-4 9-5 2v3l-4 2-3-1 3-10 4-5z" fill="#B9976A"/>
<path transform="translate(577,722)" d="m0 0 1 3-8 7-8 11-9 16-2 6-3 5-3-1 8-16 7-12 9-12z" fill="#0E0E0E"/>
<path transform="translate(504,553)" d="m0 0 7 1 6 1v2l11 2v1l-7 1-3 4-1 2-4-2 2-3-8-1-4-3 3-1-3-2z" fill="#2D2A2A"/>
<path transform="translate(565,582)" d="m0 0 4 2 2 4-1 4h2v9l-4 11-1-2h-2v-10l-1-4 2-2 1 3 1-1-1-9-3-3z" fill="#54514E"/>
<path transform="translate(135,813)" d="m0 0h1v19l4 2 6 5-4 5-5 4-2 2z" fill="#B4A896"/>
<path transform="translate(488,701)" d="m0 0h2l4 12 4 4v2l4 2-5 3-4-1-1-4-6-2 2-4h2l-3-4z" fill="#292727"/>
<path transform="translate(486,685)" d="m0 0 7 3v3h2v2l5 1 7 3 2 4-11-1-4-3-4-1-3-5-2-5z" fill="#1E1D1E"/>
<path transform="translate(647,725)" d="m0 0 9 3 5 3 1 4-9-2-3-1-13-1-3-3h8v-2z" fill="#272526"/>
<path transform="translate(470,601)" d="m0 0h1l1 12 2-3h2v-3h2l1-3h6l-4 1-1 6-3 4-3 14-3-3-1-10z" fill="#464546"/>
<path transform="translate(325,578)" d="m0 0h12l8 5 3 2 1 5-9-3-16-7z" fill="#2D2E31"/>
<path transform="translate(552,611)" d="m0 0 3 1v2h4l2 5 3 6-2 9-4 1 1-6-4-9-1-2-4-2v-2h-3v-2l5 1z" fill="#403C3A"/>
<path transform="translate(629,1094)" d="m0 0h1v21l-3 9-1 7-3-1-2-5v-8h3v-5l4-2z" fill="#363434"/>
<path transform="translate(341,1106)" d="m0 0 4 1 4 5 5 12 1 3 4 2v2h-4l-3-5-2-2-2 1-4-10-3-4z" fill="#B4946A"/>
<path transform="translate(560,954)" d="m0 0h3l-1 4-10 10-4-1-1-3v-7l4-1 1 2 4-1z" fill="#272526"/>
<path transform="translate(676,422)" d="m0 0h5l1 5 4 1v4h-5v5h-5v-5h-5v-4h5z" fill="#FEFEFE"/>
<path transform="translate(512,569)" d="m0 0 2 1-2 5v3h-2v6l-5-1v-3h-3l-1 1-3 2h-3l1-6 8-2h3l-1-3z" fill="#1C1B1C"/>
<path transform="translate(300,555)" d="m0 0h5l4 4 1 5-3 4-2 5h-2l1-7 2-6h-6l-1 7-3-3 1-7z" fill="#2B2929"/>
<path transform="translate(489,621)" d="m0 0 3 1-1 2 9 1-2 1-1 3h-5l-1-3h-2l1 4-1 2-5-1-4-4v-4z" fill="#403B37"/>
<path transform="translate(302,573)" d="m0 0h3l-4 16-7 25-1 2h-2l1-8z" fill="#363536"/>
<path transform="translate(540,947)" d="m0 0h4v6l-2 5-3 9-4-1v-6l2-10z" fill="#0E0E0E"/>
<path transform="translate(479,823)" d="m0 0h2v24l-1 22h-2v-38z" fill="#1F1E1F"/>
<path transform="translate(501,553)" d="m0 0h3v2l4 2-2 1 7 3 4 1-3 3-3 4h-5l-1-7-5-2-2-5z" fill="#1E1C1D"/>
<path transform="translate(696,422)" d="m0 0h4l1 5 4 1v4h-5v5h-4l-1-4-5-1v-4l5-1z" fill="#FEFEFE"/>
<path transform="translate(356,593)" d="m0 0h8l6 3v12l-12 6-8 3 1-4 16-7 1-8-9-3z" fill="#383535"/>
<path transform="translate(565,1564)" d="m0 0 1 2 3 1 3 2-9 1-2 5 6 3 1 2-6 1-4-3-4 3v-4l9-11z" fill="#353231"/>
<path transform="translate(313,571)" d="m0 0 3 6v7l9 3 10 4v2l-7-1-5-3-8-3-5-7v-5z" fill="#646566"/>
<path transform="translate(318,789)" d="m0 0h6v22l-3-3-3-10z" fill="#181A1B"/>
<path transform="translate(568,1089)" d="m0 0h2v7l-6 10-4 4-7 8-2 1 2-5 5-6 3-6 5-7 1-4z" fill="#312E2D"/>
<path transform="translate(213,596)" d="m0 0h3l-1 11 5 1 21 9v2l-6-1-21-9-1-1z" fill="#353537"/>
<path transform="translate(504,1112)" d="m0 0 6 1 3 6-1 3h-8l-3-3-1-5z" fill="#262425"/>
<path transform="translate(542,995)" d="m0 0 3 1-3 12-7 5h-4l-1-6h5l4-5z" fill="#272526"/>
<path transform="translate(562,1065)" d="m0 0h1l-1 9-6 12h-4l-1 4-6 5-2-1 6-5 2-5 3-3 3-8z" fill="#383533"/>
<path transform="translate(644,1036)" d="m0 0h5l-3 21-4-2-1-2v-10l5-1-2-1z" fill="#292727"/>
<path transform="translate(476,591)" d="m0 0 1 4-2 3 1 5 2-1 1 6-3-1v3l-5 4v-14l2-7z" fill="#1F1E1E"/>
<path transform="translate(609,742)" d="m0 0 2 2-3 11-2 4h-2v-2l-4 1-2 6h-1l1-10 6-5 2-1 1-3h2z" fill="#3C3836"/>
<path transform="translate(522,585)" d="m0 0h4v2l2 1-4 2v1l4 3 3 1v2h4l-1 2-12-1v-2l-4-1h2v-3h-2l1-2 2 1z" fill="#1F1E1E"/>
<path transform="translate(358,1058)" d="m0 0 2 1v2l-4 4v1l2-1-1 10-1 3-2-3-4 4v-10l-1-4h3z" fill="#B88E69"/>
<path transform="translate(389,1557)" d="m0 0 4 1 4 4 3 2h-12l-1 3-7-1v-3h4l-1-3z" fill="#656461"/>
<path transform="translate(551,1539)" d="m0 0h1v23l-1 2h-12l1-3 9-3-1-2 2-8v-7z" fill="#3C3836"/>
<path transform="translate(635,1540)" d="m0 0 1 4 1 14 2 5v12h-1l-1-8h-2l-2-4v-3l-2-1 2-7z" fill="#3D3A39"/>
<path transform="translate(641,1021)" d="m0 0h2v4l2 1-5 5v3l-1 4 4 1-1 2-4-1-3-9v-1l-1-4 3-1z" fill="#242223"/>
<path transform="translate(296,566)" d="m0 0h2l-1 8-7 25h-3l4-16z" fill="#363637"/>
<path transform="translate(540,568)" d="m0 0h5v8l6-1-2 1-1 4-3 3-4-2v-2l-5-3 4-4 2 1v3l1-3-3-3z" fill="#3E3A39"/>
<path transform="translate(561,579)" d="m0 0h2l2 5v2l3 1 1 10h-2l-1-2-3 3-2-1v-2h2l-1-7-2-3z" fill="#222021"/>
<path transform="translate(384,1128)" d="m0 0h6l2 2v5h-10l-1 5-3-1 2-1-2-7 6-1z" fill="#B79B76"/>
<path transform="translate(508,630)" d="m0 0 1 3-1 8-3 6h-2v3l-5-1 1-4 4-6z" fill="#B4A896"/>
<path transform="translate(388,1563)" d="m0 0 28 4v3 2l-14-3-12-4z" fill="#0E0E0E"/>
<path transform="translate(536,558)" d="m0 0 9 1 7 4-1 3h-4l-1 3-2-1-3-5-8-2z" fill="#474647"/>
<path transform="translate(615,1144)" d="m0 0 5 2 3 1v2h2l-1 7-2 9h-1l-2-9-4-10z" fill="#2D2C2E"/>
<path transform="translate(510,657)" d="m0 0h8l6 4 4 1 1 4-2 3-5 1 1-4 1-1-8-4h-5z" fill="#3B3736"/>
<path transform="translate(390,1132)" d="m0 0 1 4-4 2h-3l-2 5-12-1-4-2 2-1h7l-1-2 7 2 1-4 6-1 2 1z" fill="#706B65"/>
<path transform="translate(545,1590)" d="m0 0 1 2-1 4h2v2h5v2l4 1v1h-14l-2-3 3-7z" fill="#3D3938"/>
<path transform="translate(477,967)" d="m0 0h10l10 1v2h-7v9l-3-3-1-5-10-1z" fill="#554D46"/>
<path transform="translate(427,1037)" d="m0 0h1l-1 18-1 7h-3v-15z" fill="#272526"/>
<path transform="translate(430 1e3)" d="m0 0h1l-1 17-3 3-2-1v-7l-1-4h2l2-7z" fill="#2B2A2A"/>
<path transform="translate(462,768)" d="m0 0 4 2v2l5 2-3 9-1-2-8-1 4-2-1-5z" fill="#272526"/>
<path transform="translate(499,675)" d="m0 0 15 2v3l-3 1-1 3-3 1-8-8z" fill="#3A3634"/>
<path transform="translate(484,637)" d="m0 0 6 1v2h3l1 4-3 3h-5l-3-5z" fill="#FFE680"/>
<path transform="translate(536,620)" d="m0 0 8 3 1 2h-24l-3-1v-2z" fill="#383533"/>
<path transform="translate(328,789)" d="m0 0h9v8h-9z" fill="#131313"/>
<path transform="translate(590,927)" d="m0 0h1v9l3 6-2 6-2 1-1-4 1-3-2-7-5 3 5-10z" fill="#272526"/>
<path transform="translate(290,616)" d="m0 0h3l-4 16-3 11-3-1 4-16z" fill="#3C3A39"/>
<path transform="translate(486,575)" d="m0 0 1 2 2 1-4 1-1 3-6 3-3 3 1-5-4 3-2-1 4-5 4-1 5-3z" fill="#3F3C3A"/>
<path transform="translate(550,564)" d="m0 0h5l1 5-7 2 1 4-5 1v-5l-3-1 4-2 1-2z" fill="#2C2B2D"/>
<path transform="translate(536,1533)" d="m0 0 4 3h2l-1-3h2l2 10-5 1-5-5-2-1 2-4z" fill="#272526"/>
<path transform="translate(471,1525)" d="m0 0 2 1-10 9-8 4-2-1 5-5 9-7z" fill="#302F2E"/>
<path transform="translate(670,789)" d="m0 0 8 1v10l-4-2-5-3-1-4h2z" fill="#292727"/>
<path transform="translate(466,640)" d="m0 0 2 4 2 3v10l1 2-5-1-2-3 1-7 1-3z" fill="#BAAE9D"/>
<path transform="translate(265,574)" d="m0 0 2 1 1 1v8h-1v-7l-22 9 1-4z" fill="#3B3939"/>
<path transform="translate(623 1e3)" d="m0 0 2 1-2 4 8 2 3 2v2l2 1-4-1-3-2-9-1-7-3v-1l6-2z" fill="#0E0E0E"/>
<path transform="translate(524,627)" d="m0 0h6l12 5 1 2-6-1v-2h-2v2h-6l-1-4-2 2-4 1v-4z" fill="#403C3A"/>
<path transform="translate(557,724)" d="m0 0 4 2-1 5-6 2-5-1 1-5z" fill="#BAA27E"/>
<path transform="translate(465,626)" d="m0 0 4 1 4 4-1 11h-3l-1-4 2-4v-3l-2-1-1 3h-2l-1 2v-8z" fill="#3D3937"/>
<path transform="translate(534,585)" d="m0 0h4v4h2l1 3h-5l-2 2-2-2h-3v-3l-1-3h5z" fill="#272526"/>
<path transform="translate(405,1551)" d="m0 0h5l-3 2-12 1-2 3-10 2-4-1 8-4 7-2z" fill="#4F4E4D"/>
<path transform="translate(550,582)" d="m0 0 4 4 1 4-1 4-2 4-3-3-1-12z" fill="#403B38"/>
<path transform="translate(595,1609)" d="m0 0 3 1-13 3-14 3-14-1v-1h20l1-4h10z" fill="#7A766F"/>
<path transform="translate(361,1059)" d="m0 0 2 4-2 5-4 7h-1v-6-1l-2-1 4-6z" fill="#3C3836"/>
<path transform="translate(654,1012)" d="m0 0 5 2v7l-5 5-2-1-2-2 1-4 3 1z" fill="#B19B77"/>
<path transform="translate(510,711)" d="m0 0 2 1-2 5-4 3h-6l-2-2 6-2-1-3z" fill="#3D3937"/>
<path transform="translate(560,595)" d="m0 0 1 3-1 6-3 1-2 3-4-4 2-6 3 1z" fill="#3B3735"/>
<path transform="translate(543,1606)" d="m0 0 10 1v1l-5 1 9 2v3h-7l-7-3z" fill="#4A4744"/>
<path transform="translate(498,1564)" d="m0 0m-9 1h9l5 1v1l-11 2-14 1 4-1v-2z" fill="#626669"/>
<path transform="translate(589,772)" d="m0 0 5 1 1 4-3 2 1 3-5 1-1-6z" fill="#3C3836"/>
<path transform="translate(328,578)" d="m0 0h9l8 5 3 2v2l-9-3-11-5z" fill="#F1F2F2"/>
<path transform="translate(510,616)" d="m0 0h4l2 3v6l-2 2-1 4v-3l-3 1 1-4v-2z" fill="#D9C78B"/>
<path transform="translate(461,1333)" d="m0 0 3 3v2l3 1-3 11-1 7h-1z" fill="#424F5C"/>
<path transform="translate(492,696)" d="m0 0 4 2 10 3v3l-2 2-5-1-7-8z" fill="#3C3836"/>
<path transform="translate(486,685)" d="m0 0 7 3v3h2l-1 5h-4l-3-5-2-5z" fill="#2C2A2A"/>
<path transform="translate(487,593)" d="m0 0h1l2 9-1 1h-9l-1-2 2-3v2h3l1-6z" fill="#0E0E0E"/>
<path transform="translate(267,573)" d="m0 0h3v13l-8 3-3-1 6-4h3v-8l-2-1z" fill="#333030"/>
<path transform="translate(618,1600)" d="m0 0 3 1-4 2-2 3h-8v2h-8l3-3 5-1 1-2h7z" fill="#7D8488"/>
<path transform="translate(533,691)" d="m0 0 1 2 4-1-4 5-8 3-5-1 1-5 3 2 6-2z" fill="#2C2929"/>
<path transform="translate(584,705)" d="m0 0 23 2-2 2-7 1-3 1-8-3v-2z" fill="#505253"/>
<path transform="translate(581,1559)" d="m0 0 6 1-1 5-8-1-4-3z" fill="#0E0E0E"/>
<path transform="translate(498,667)" d="m0 0h6v2h11l-1 4h-7l-8-4z" fill="#BAA98C"/>
<path transform="translate(555,588)" d="m0 0 3 1 1 8h-2l-1 3-3-2v-6l-1-2h3z" fill="#252324"/>
<path transform="translate(575,943)" d="m0 0 5 1-1 4h2l2-4h3l1 3h-2v2h-2l-1 3v-2h-4l-1-4-7 1 2-2h2z" fill="#272526"/>
<path transform="translate(471,818)" d="m0 0h3v3l-14 6-2-1 4-4z" fill="#CACAC6"/>
<path transform="translate(535,1564)" d="m0 0 4 1-3 1-19 1-3 1-11-2v-1z" fill="#9EA6AA"/>
<path transform="translate(358,1105)" d="m0 0 3 1 4 8h2v6l-2-2-4 2v-6z" fill="#B9976A"/>
<path transform="translate(500,883)" d="m0 0 4 1v2h2l-2 6-5-1-2 1 2-7z" fill="#272526"/>
<path transform="translate(650,1026)" d="m0 0 2 1-1 6-1-2h-2l1 5-4 1-2-1v-2l3-2v-5l4 1z" fill="#B79F7E"/>
<path transform="translate(427,978)" d="m0 0 3 3-1 8-1 1-2 15h-1v-10l1-14z" fill="#676767"/>
<path transform="translate(494,651)" d="m0 0 5 1 2 1v2l-3 2h-8l2-4z" fill="#B5A48C"/>
<path transform="translate(504,553)" d="m0 0 7 1 6 1-4 3h-2v2l-8-1 3-2-3-2z" fill="#50555B"/>
<path transform="translate(618,1053)" d="m0 0h5v19h-1v-5h-2l-1-3 1-2h2v-3h-3z" fill="#363231"/>
<path transform="translate(522,616)" d="m0 0h7l4 2-2 2-10 1-2-2z" fill="#FFE680"/>
<path transform="translate(548,1608)" d="m0 0h8l10 3-2 2-14-2-3-2z" fill="#0E0E0E"/>
<path transform="translate(614,1172)" d="m0 0 3 3 2 5h2l-2 10-2-3-3-11z" fill="#2D2B2B"/>
<path transform="translate(429,973)" d="m0 0 3 1 1 4-1 15-2-4v-8l-2 1-1-6z" fill="#2A2828"/>
<path transform="translate(632,1584)" d="m0 0 3 2-2 5-5 4-4 2 1-4 3-3h2z" fill="#5C6064"/>
<path transform="translate(536,1288)" d="m0 0 3 4 2 9-1 16h-1l-1-18-2-8z" fill="#525960"/>
<path transform="translate(565,1564)" d="m0 0 1 2 3 1 3 2-10 2-5 4 2-4z" fill="#434141"/>
<path transform="translate(424,1063)" d="m0 0h1v12l-1 3h-2v3h-2l1-8 2-5z" fill="#272526"/>
<path transform="translate(503,618)" d="m0 0 8 1v4l2 1-2 2-1 4h-3l1-8z" fill="#B8976C"/>
<path transform="translate(335,592)" d="m0 0 9 3 5 2v3l-9-3-7-3z" fill="#3F3D3E"/>
<path transform="translate(476,861)" d="m0 0h1v15l-2-2-3-9z" fill="#3D3937"/>
<path transform="translate(349,598)" d="m0 0 5 1 6 3-4 3-5 1 1-4-3-2z" fill="#313133"/>
<path transform="translate(556,1596)" d="m0 0h11v2l-3 1h-12l-2-2z" fill="#0E0E0E"/>
<path transform="translate(563,1102)" d="m0 0 1 2-7 10-6 5 2-5 5-6 1-3z" fill="#0F0F0F"/>
<path transform="translate(595,1108)" d="m0 0 1 2-5 10-5 5-2-1 6-8 3-7z" fill="#161616"/>
<path transform="translate(499,798)" d="m0 0 12 1-1 4-8-2-1 8h-1z" fill="#0E0E0E"/>
<path transform="translate(581,711)" d="m0 0 1 4-2 2-13 1v-2l13-4z" fill="#0E0E0E"/>
<path transform="translate(213,596)" d="m0 0h3l-1 11 5 1v2l-6-1-1-1z" fill="#2F2D2D"/>
<path transform="translate(511,556)" d="m0 0h6l2 1-2 4-5 1-5-1 4-1z" fill="#2A2829"/>
<path transform="translate(671,1070)" d="m0 0h1l2 11-7 1-1-2h2l1-3h2z" fill="#53504D"/>
<path transform="translate(562,970)" d="m0 0h2v3l-4 2-4 5h-7l3-1v-2l5-2z" fill="#272526"/>
<path transform="translate(533,624)" d="m0 0h9l4 4-2 1-11-2z" fill="#DFC276"/>
<path transform="translate(313,619)" d="m0 0 3 1-1 9 4-1-1 3-5 1z" fill="#313031"/>
<path transform="translate(488,616)" d="m0 0 11 2 5 2v2l-11-2-5-2z" fill="#2C292A"/>
<path transform="translate(497,551)" d="m0 0 6 1-4 5h-2l-1 2-4-2z" fill="#737E87"/>
<path transform="translate(229,599)" d="m0 0 2 1v3l3 2-2 2-10-4 4-3z" fill="#312E2E"/>
<path transform="translate(227,590)" d="m0 0 2 1v2l-13 5-1-3z" fill="#3D3D3D"/>
<path transform="translate(482,570)" d="m0 0 1 2v5l-5 3-4 1 2-4z" fill="#2B2829"/>
<path transform="translate(534,1562)" d="m0 0h6l-1 2-4 1h-14l2-2z" fill="#322F2E"/>
<path transform="translate(616,1054)" d="m0 0h3v4l-13 1 4-4z" fill="#47403B"/>
<path transform="translate(276,640)" d="m0 0 1 4 6-2 2-1v5h-11l1-5z" fill="#2D2C2E"/>
<path transform="translate(330,622)" d="m0 0 2 1v2l-11 5h-2l2-4z" fill="#3D3C3D"/>
<path transform="translate(349,604)" d="m0 0 3 1-3 3-7 3-4-1 6-4z" fill="#393737"/>
<path transform="translate(513,576)" d="m0 0 6 3-1 3-4 2-1-2-2 1-1-5z" fill="#3B3735"/>
<path transform="translate(341,1106)" d="m0 0 4 1 2 10h-2l-4-6z" fill="#504B47"/>
<path transform="translate(258,587)" d="m0 0 2 1v2l-13 5 1-4z" fill="#3E3D3E"/>
<path transform="translate(485,586)" d="m0 0 6 2-2 5-4-1-2 1v-4h2z" fill="#3D3937"/>
<path transform="translate(526,573)" d="m0 0h7l1 2-6-1v2h4l-1 4-7-2z" fill="#3D3937"/>
<path transform="translate(551,1555)" d="m0 0h1v7l-1 2h-12l1-2 10-2z" fill="#8E8E8C"/>
<path transform="translate(406,1557)" d="m0 0h16l2 1v3l-14-2z" fill="#0E0E0E"/>
<path transform="translate(479,744)" d="m0 0 2 1-2 5h-2l-1 5-2-1v-6z" fill="#3D3937"/>
<path transform="translate(488,731)" d="m0 0h1l1 7-2 8-2-1v-8z" fill="#0E0E0E"/>
<path transform="translate(295,602)" d="m0 0h1l-1 9-2 5h-2l1-8z" fill="#313134"/>
<path transform="translate(308,560)" d="m0 0 2 1-1 5-2 2-2 5h-2l1-7 4-2z" fill="#717375"/>
<path transform="translate(523,565)" d="m0 0h8l-1 4v-2h-5l-1 6-4-4 1-3z" fill="#322F2F"/>
<path transform="translate(485,836)" d="m0 0h4l1 5-2 2h-3l-1-5z" fill="#2D2A29"/>
<path transform="translate(300,555)" d="m0 0h5l3 3h-10l-1 6h-1l1-7z" fill="#E4E3DF"/>
<path transform="translate(457,1569)" d="m0 0 20 1v1l-16 1-3 1-3-3z" fill="#686A6B"/>
<path transform="translate(580,1546)" d="m0 0 5 1v2h-4l-2 6-2 1 1-8z" fill="#383433"/>
<path transform="translate(535,1522)" d="m0 0 2 1-1 3h-2v2l-6 2-2-2z" fill="#272526"/>
<path transform="translate(647,1012)" d="m0 0h3l-1 5h-12v-1l7-2z" fill="#0E0E0E"/>
<path transform="translate(366,989)" d="m0 0 2 3v5l-3 3-1 6h-1v-8z" fill="#595F65"/>
<path transform="translate(567,927)" d="m0 0 2 1-1 5-3 3-2-2 1-5z" fill="#272526"/>
<path transform="translate(467,648)" d="m0 0h3v9l1 2-5-1z" fill="#B49A77"/>
<path transform="translate(493,624)" d="m0 0 7 1-2 1-1 3h-5l-1-4z" fill="#3A3735"/>
<path transform="translate(297,591)" d="m0 0h3l-3 13-3-1z" fill="#3C3A39"/>
<path transform="translate(479,1524)" d="m0 0 3 1v3l-5 2-4-1 4-4z" fill="#5E8DBA"/>
<path transform="translate(578,1107)" d="m0 0h2l-2 6-3 5-3 3-2-1 4-6z" fill="#212020"/>
<path transform="translate(568,981)" d="m0 0 3 1 1 3-2 2h-5l-1-5h2v2h2z" fill="#272526"/>
<path transform="translate(550,678)" d="m0 0 2 4-2 5-6 5-2-1 6-7z" fill="#B8986C"/>
<path transform="translate(498,576)" d="m0 0 5 1-1 3-1 1-3 2h-3l1-6z" fill="#0E0E0E"/>
<path transform="translate(470,974)" d="m0 0h1v6h2v9l1 3h-3l-1-7z" fill="#505153"/>
<path transform="translate(486,969)" d="m0 0h6l-2 1v9l-3-3z" fill="#B89A72"/>
<path transform="translate(547,589)" d="m0 0 1 3-1 2 3 1v2l-8-1 2-4z" fill="#0E0E0E"/>
<path transform="translate(528,587)" d="m0 0 3 2-2 1 1 4-5-1-3-1 1-3 4-1z" fill="#403B38"/>
<path transform="translate(390,1132)" d="m0 0 1 4-9 3v-4l6-1 2 1z" fill="#5D554D"/>
<path transform="translate(492,896)" d="m0 0 3 4 1 6 1 3-4 1z" fill="#262425"/>
<path transform="translate(565,582)" d="m0 0 4 2 2 4-2 4-2-5-3-3z" fill="#626567"/>
<path transform="translate(672,367)" d="m0 0 8 2 4 6-5-2-7-4z" fill="#FEFEFE"/>
<path transform="translate(363,1064)" d="m0 0 2 3-4 6-4 1 5-9z" fill="#B9976A"/>
<path transform="translate(288,598)" d="m0 0h1l-1 8-2 4-2-1 2-9z" fill="#3D3E3F"/>
<path transform="translate(561,597)" d="m0 0h4l1 8h-4z" fill="#302D2D"/>
<path transform="translate(501,553)" d="m0 0h3v2l4 2-7 2-3-4z" fill="#2C2A2A"/>
<path transform="translate(623,1597)" d="m0 0v3l-7 2-4 1v-2h2v-2z" fill="#454445"/>
<path transform="translate(573,1555)" d="m0 0 2 4-4 4h-2l1-6z" fill="#1C1B1A"/>
<path transform="translate(367,1135)" d="m0 0 7 2 2 3h-8l-2-2 2-1z" fill="#272526"/>
<path transform="translate(488,701)" d="m0 0h2l1 11-4-3z" fill="#141313"/>
<path transform="translate(543,603)" d="m0 0h2v3h4l1 4-4-1-1 2-2-3z" fill="#403B38"/>
<path transform="translate(325,578)" d="m0 0 5 1 5 2-2 3-9-4z" fill="#373A3F"/>
<path transform="translate(368,1123)" d="m0 0 4 2h6l2-1v3h-7v2l-3 1z" fill="#B8986D"/>
<path transform="translate(362,1053)" d="m0 0 8 1v1h-6v2l-7-1 2-2z" fill="#282627"/>
<path transform="translate(636,1031)" d="m0 0 4 4-1 3 4 1-1 2-4-1-2-5z" fill="#272526"/>
<path transform="translate(496,893)" d="m0 0 1 3h3l-1 6-3 1-1-6z" fill="#272526"/>
<path transform="translate(492,761)" d="m0 0h2l-1 8-3 3-1-3z" fill="#211F20"/>
<path transform="translate(658,742)" d="m0 0 5 2 2 3-1 3-5-4z" fill="#272526"/>
<path transform="translate(518,622)" d="m0 0h10l2 3h-9l-3-1z" fill="#3D3937"/>
<path transform="translate(479,589)" d="m0 0 3 3-1 3-3 3h-1v-6z" fill="#3B3735"/>
</svg>