<svg xmlns="http://www.w3.org/2000/svg" version="1.1" viewBox="0 0 2048 1019" width="707" height="352">
<path transform="translate(952,388)" d="m0 0h65l6 3 5 5 5 8 10 23 19 45 18 42 23 54 43 101 17 40 15 35 13 31 8 19v14l-6 9-5 4-3 1h-400l-9-5-6-9v-12l17-41 5-9 7-6 4-2h211l66-1-9-21-55-132-17-41-13-31v-2l-3 3-14 34-19 45-15 36-12 29-15 36-6 10-8 4-4 1h-57l-8-4-5-6-2-6v-9l6-16 13-30 23-54 19-44 23-54 36-84 4-6 6-5z" fill="#FB1918"/>
<path transform="translate(474,372)" d="m0 0 4 1 9 9 9 12 12 15 11 14 14 17 10 13 4 3 39 11 4 2-1 11-5 33-5 1-35-3-2-1v-11l1-9v-14l-10-16-17-26-16-25-12-17-5-7 8 24 16 42 14 37 11 28 1 2 24 2 13 1v11l-6 36-1 2-38 5-14 1 1-16 2-28v-18l-16-59-19-68-2-10h-2v11l-5 45-4 46-2 15-2 24-7 72-3 30-1 4-26 7-51 13-5 2-9 31-9 29-13 44-10 34-10 35 5-5 11-17 12-17 17-26 29-44 1-2 1-56 10-3 62-15h4v13l-1 24-1 11-3 3-36 13-13 5-10 11-7 9-9 12-8 10-10 13-11 14-13 17-14 18-12 16-7 8-3 1-2-3-6-29-10-55-9-47-16-82-14-73-13-67-11-57v-3l9 1 93 19 66 14 20 4h5l17-28 14-24 15-25zm7 10m-10 2-8 15-10 24-13 30-17 40-1 3-1 48-21 2-84 6-31 2v11l10 105 5 48 6 60 2 15 2 22 3 5 2-2 7-34 11-49 12-55 3-15v-18l-6-74v-9l70-4 20-1 2-1 4-15 10-46 16-74 8-36z" fill="#FB1B1A"/>
<path transform="translate(1404,388)" d="m0 0h7l9 4 5 6 3 10v47l-4 10-6 5-12 5-15 5-16 8-14 9-10 9-8 8-10 14-11 21-6 19-3 18v40l4 22 5 16 11 21 12 16 9 10 13 10 14 8 14 6 22 7 7 6 4 10v49l-4 10-8 7-3 1h-12l-27-7-21-8-25-13-17-12-11-9-12-11-9-10-11-14-10-14-14-27-9-25-6-26-3-26v-35l3-25 6-25 6-18 9-20 11-19 13-17 12-14 8-8 11-9 17-13 17-10 19-9 21-7 17-4z" fill="#FB1A19"/>
<path transform="translate(1552,572)" d="m0 0h92l9 2 8 6 4 8 1 5v30l-4 30-6 24-7 20-11 23-12 19-13 16-23 23-16 12-14 9-19 10-21 8-15 5-13 3h-14l-8-5-5-8-2-11 1-43 3-9 8-7 29-10 16-8 10-7 10-9 5-5 8-9 10-16 7-15 3-8h-31l-99-1-8-5-5-7-2-8v-38l3-12 7-8 5-3z" fill="#FB1A19"/>
<path transform="translate(474,372)" d="m0 0 4 1 9 9 9 12 12 15 11 14 14 17 10 13 4 3 39 11 4 2-1 11-5 33-5 1-35-3-2-1v-11l1-9v-14l-10-16-17-26-16-25-12-17-5-7 8 24 16 42 14 37 11 28 1 2 24 2 13 1v11l-6 36-1 2-38 5-14 1 1-16 2-28v-18l-16-59-19-68-2-10h-2v11l-5 45-4 46-2 15-2 24-7 72-3 30-1 4-26 7-51 13-5 2-9 31-9 29-13 44-10 34-10 35 5-5 11-17 12-17 17-26 29-44 1-2 1-56 10-3 62-15h4v13l-1 24-1 11-3 3-36 13-13 5-10 11-7 9-9 12-8 10-10 13-11 14-13 17-14 18-12 16-7 8-3 1-2-3-3-13v-3h3l3 6 2-6 6-29 11-49 12-55 3-15v-18l-6-74v-9l1-1 70-4 22-1 2-10 10-47 24-110 1-6-3 4-1-3-2 1 2-5z" fill="#FB1E1D"/>
<path transform="translate(1481,388)" d="m0 0 9 1 18 4 20 6 20 9 15 8 17 12 16 13 9 8v2h2l9 11 8 10 10 15 12 23 1 9-3 9-6 7-7 3h-58l-9-4-8-10-10-13-10-10-14-10-17-9-17-6-13-5-7-6-4-8-1-43 2-11 3-7 5-5z" fill="#FB1A19"/>
<path transform="translate(466,634)" d="m0 0h4v13l-1 24-1 11-3 3-36 13-13 5-10 11-7 9-9 12-8 10-10 13-11 14-13 17-14 18-4 5-4-1 2-5 11-16 24-36 29-44 1-2 1-56 10-3z" fill="#FB1E1D"/>
<path transform="translate(549,580)" d="m0 0h10l-1 12-4 30-2 16-8 4-47 15-13 4h-3v-27l2-44 1-2z" fill="#FB1C1B"/>
<path transform="translate(481,388)" d="m0 0 3 1 13 36 15 39 15 40 6 14 24 2 13 1v11l-6 36-1 2-38 5-14 1 1-16 2-28v-18l-16-59-17-61z" fill="#FB1E1D"/>
<path transform="translate(474,372)" d="m0 0 4 1 9 9 9 12 12 15 11 14 14 17 10 13 4 3 39 11 4 2-1 11-5 33-5 1-35-3-2-1v-11l1-9v-14l-10-16-17-26-16-25-12-17-5-7-1 4-2 1-3-11v-2h-2v11l-1-3h-3l-3 4-1-3-2 1 2-5z" fill="#FB1F1E"/>
<path transform="translate(319,810)" d="m0 0 1 2-2 7 5-5 2-3 5 1-6 9-9 10-3 1-2-3-3-13v-3h3l3 6 3-7z" fill="#FEFEFE"/>
<path transform="translate(474,372)" d="m0 0 4 1 8 8 1 5 1 4-5-4-1 3-2 1-3-11v-2h-2v11l-1-3h-3l-3 4-1-3-2 1 2-5z" fill="#FDFBFB"/>
</svg>